<svg width="135" height="47" viewBox="0 0 135 47" fill="none" xmlns="http://www.w3.org/2000/svg">
<path d="M9.464 34.344C8.152 34.344 6.92 34.296 5.768 34.2C4.616 34.136 3.16 33.912 1.4 33.528C1.176 33.272 1 32.968 0.872 32.616C0.744 32.232 0.68 31.96 0.68 31.8C0.68 31.576 0.728 31.464 0.824 31.464C1.08 31.464 1.656 31.592 2.552 31.848C3.48 32.072 4.824 32.184 6.584 32.184C9.176 32.184 11.432 31.72 13.352 30.792C15.272 29.832 16.76 28.584 17.816 27.048C18.872 25.512 19.4 23.864 19.4 22.104C19.4 20.12 18.84 18.296 17.72 16.632C16.632 14.968 15.192 13.448 13.4 12.072C11.608 10.696 9.704 9.48 7.688 8.424C7.752 9.512 7.784 10.616 7.784 11.736C7.816 12.856 7.832 13.992 7.832 15.144C7.832 17.224 7.752 19.272 7.592 21.288C7.432 23.272 7.224 25.016 6.968 26.52C6.744 27.992 6.504 29 6.248 29.544C6.056 29.768 5.784 29.944 5.432 30.072C5.112 30.2 4.872 30.264 4.712 30.264C4.488 30.264 4.376 30.216 4.376 30.12C4.536 29.16 4.68 27.944 4.808 26.472C4.968 25 5.048 23.416 5.048 21.72C5.048 19.352 4.92 16.984 4.664 14.616C4.44 12.248 4.024 10.088 3.416 8.136C2.808 6.152 1.928 4.6 0.776 3.48L2.792 0.263998C4.584 2.024 6.488 3.608 8.504 5.016C10.52 6.424 12.472 7.752 14.36 9C16.28 10.248 18.008 11.512 19.544 12.792C21.08 14.072 22.312 15.464 23.24 16.968C24.168 18.44 24.632 20.152 24.632 22.104C24.632 23.96 24.28 25.576 23.576 26.952C22.872 28.296 21.944 29.448 20.792 30.408C19.64 31.336 18.376 32.104 17 32.712C15.656 33.288 14.312 33.704 12.968 33.96C11.656 34.216 10.488 34.344 9.464 34.344ZM44.5528 34.344C44.3288 34.344 44.0248 34.28 43.6408 34.152C43.2568 34.024 42.9688 33.864 42.7768 33.672C42.2008 32.36 41.7048 30.76 41.2888 28.872C40.9048 26.952 40.5848 25.064 40.3288 23.208C39.4328 25.32 38.4088 27.192 37.2568 28.824C36.1048 30.456 34.9208 31.736 33.7048 32.664C32.5208 33.592 31.3688 34.056 30.2488 34.056C28.8088 34.056 27.7528 33.544 27.0808 32.52C26.4408 31.496 26.1208 30.2 26.1208 28.632C26.1208 26.456 26.5368 24.456 27.3688 22.632C28.2008 20.776 29.3048 19.112 30.6808 17.64C32.0888 16.136 33.6088 14.84 35.2408 13.752C36.9048 12.632 38.5528 11.72 40.1848 11.016L44.0728 9.336L45.2248 10.008C44.7448 11.416 44.3608 13.112 44.0728 15.096C43.7848 17.08 43.6408 18.968 43.6408 20.76C43.6408 21.624 43.6728 22.696 43.7368 23.976C43.8328 25.256 43.9448 26.584 44.0728 27.96C44.2008 29.304 44.3288 30.552 44.4568 31.704C44.6168 32.824 44.7608 33.656 44.8888 34.2C44.8888 34.296 44.7768 34.344 44.5528 34.344ZM33.0328 28.296C33.9928 28.296 35.1128 27.512 36.3928 25.944C37.6728 24.376 38.8248 22.008 39.8488 18.84C39.8168 18.488 39.8008 18.168 39.8008 17.88C39.8008 17.56 39.8008 17.272 39.8008 17.016C39.8008 16.216 39.8008 15.528 39.8008 14.952C39.8008 14.376 39.8168 13.864 39.8488 13.416C38.3767 14.248 36.9368 15.208 35.5288 16.296C34.1208 17.352 32.9528 18.584 32.0247 19.992C31.0968 21.368 30.6328 22.952 30.6328 24.744C30.6328 25.768 30.7928 26.616 31.1128 27.288C31.4648 27.96 32.1048 28.296 33.0328 28.296ZM53.8996 6.84C53.0996 6.84 52.4916 6.552 52.0756 5.976C51.6596 5.368 51.4516 4.76 51.4516 4.152C51.4516 3.224 51.8196 2.44 52.5556 1.8C53.2916 1.16 54.3636 0.743999 55.7716 0.551997C56.3156 0.967998 56.6836 1.464 56.8756 2.04C57.0996 2.584 57.2116 3.112 57.2116 3.624C57.2116 4.616 56.8596 5.4 56.1556 5.976C55.4516 6.552 54.6996 6.84 53.8996 6.84ZM51.2596 33.624C51.0356 33.624 50.9236 33.576 50.9236 33.48C51.3716 30.888 51.6756 28.536 51.8356 26.424C52.0276 24.312 52.1236 22.424 52.1236 20.76C52.1236 18.136 51.9796 15.992 51.6916 14.328C51.4036 12.664 51.1316 11.368 50.8756 10.44L52.0276 9.72L55.9156 11.592C55.9476 12.104 55.9636 12.632 55.9636 13.176C55.9956 13.688 56.0116 14.216 56.0116 14.76C56.0116 17.768 55.7396 20.792 55.1956 23.832C54.6836 26.84 53.9796 29.88 53.0836 32.952C52.8916 33.144 52.5876 33.304 52.1716 33.432C51.7876 33.56 51.4836 33.624 51.2596 33.624ZM75.425 34.056C75.265 34.056 75.185 34.008 75.185 33.912C75.345 32.056 75.489 30.248 75.617 28.488C75.745 26.728 75.809 25.112 75.809 23.64C75.809 21.4 75.617 19.592 75.233 18.216C74.849 16.808 74.145 16.104 73.121 16.104C72.033 16.104 70.833 16.936 69.521 18.6C68.241 20.232 67.137 22.712 66.209 26.04L64.241 32.952C64.049 33.144 63.745 33.304 63.329 33.432C62.945 33.56 62.641 33.624 62.417 33.624C62.193 33.624 62.081 33.56 62.081 33.432C62.721 30.072 63.105 27.128 63.233 24.6C63.361 22.072 63.329 19.896 63.137 18.072C62.945 16.216 62.689 14.68 62.369 13.464C62.081 12.216 61.841 11.208 61.649 10.44L62.801 9.72L66.689 11.592C66.785 14.024 66.833 16.456 66.833 18.888L67.121 18.936C68.337 16.344 69.697 14.264 71.201 12.696C72.705 11.128 74.145 10.344 75.521 10.344C76.865 10.344 77.841 10.856 78.449 11.88C79.057 12.872 79.361 14.168 79.361 15.768C79.361 16.28 79.345 16.792 79.313 17.304C79.313 17.784 79.297 18.28 79.265 18.792L79.553 18.84C80.769 16.28 82.161 14.232 83.729 12.696C85.297 11.128 86.769 10.344 88.145 10.344C89.489 10.344 90.465 10.856 91.073 11.88C91.681 12.872 91.985 14.168 91.985 15.768C91.985 18.584 91.809 21.464 91.457 24.408C91.105 27.32 90.673 30.312 90.161 33.384C89.969 33.608 89.633 33.768 89.153 33.864C88.673 33.992 88.321 34.056 88.097 34.056C87.905 34.056 87.809 34.008 87.809 33.912C87.969 32.056 88.113 30.248 88.241 28.488C88.369 26.728 88.433 25.112 88.433 23.64C88.433 21.4 88.241 19.592 87.857 18.216C87.473 16.808 86.769 16.104 85.745 16.104C84.913 16.104 83.953 16.584 82.865 17.544C81.809 18.504 80.833 19.976 79.937 21.96C79.041 23.944 78.401 26.456 78.017 29.496L77.537 33.384C77.345 33.608 77.009 33.768 76.529 33.864C76.049 33.992 75.681 34.056 75.425 34.056ZM96.1152 46.632L94.9153 45.768L96.0673 41.112C96.7073 41.208 97.2513 41.256 97.6992 41.256C99.3633 41.256 100.723 40.584 101.779 39.24C102.835 37.928 103.699 36.136 104.371 33.864C103.667 34.312 103.043 34.536 102.499 34.536C102.211 34.536 101.939 34.472 101.683 34.344C101.107 33.128 100.547 31.704 100.003 30.072C99.4593 28.408 98.9633 26.648 98.5153 24.792C98.0673 22.904 97.7153 21.016 97.4593 19.128C97.2033 17.24 97.0753 15.464 97.0753 13.8C97.0753 13.224 97.0913 12.664 97.1233 12.12C97.1553 11.576 97.2193 11.048 97.3153 10.536L98.5153 9.72L102.355 11.64C101.779 14.04 101.491 16.472 101.491 18.936C101.491 21.08 101.619 23.176 101.875 25.224C102.131 27.24 102.419 29.16 102.739 30.984C103.219 29.288 103.843 27.512 104.611 25.656C105.379 23.8 106.227 21.96 107.155 20.136C108.083 18.312 109.027 16.6 109.987 15C110.979 13.368 111.923 11.944 112.819 10.728C113.075 10.536 113.427 10.376 113.875 10.248C114.323 10.12 114.659 10.056 114.883 10.056C114.979 10.056 115.027 10.12 115.027 10.248C115.027 10.28 115.011 10.328 114.979 10.392C114.979 10.424 114.979 10.472 114.979 10.536C113.123 13.576 111.523 17.048 110.179 20.952C108.835 24.856 107.699 28.792 106.771 32.76C106.259 34.936 105.539 36.968 104.611 38.856C103.715 40.776 102.563 42.408 101.155 43.752C99.7473 45.096 98.0673 46.056 96.1152 46.632ZM124.495 34.584C122.959 34.584 121.551 34.184 120.271 33.384C118.991 32.616 117.967 31.48 117.199 29.976C116.431 28.44 116.047 26.552 116.047 24.312C116.047 22.776 116.335 21.208 116.911 19.608C117.519 18.008 118.495 16.504 119.839 15.096C121.183 13.688 122.991 12.504 125.263 11.544C127.535 10.584 130.335 9.976 133.663 9.72L134.191 11.064L131.887 13.704C132.687 14.664 133.327 15.768 133.807 17.016C134.319 18.264 134.575 19.896 134.575 21.912C134.575 23.384 134.367 24.872 133.951 26.376C133.567 27.88 132.959 29.256 132.127 30.504C131.295 31.72 130.239 32.696 128.959 33.432C127.711 34.2 126.223 34.584 124.495 34.584ZM125.023 30.216C126.431 30.216 127.647 29.8 128.671 28.968C129.695 28.104 130.479 27.08 131.023 25.896C131.567 24.712 131.839 23.592 131.839 22.536C131.839 21 131.679 19.448 131.359 17.88C131.039 16.312 130.319 14.872 129.199 13.56C127.631 13.816 126.175 14.392 124.831 15.288C123.487 16.184 122.415 17.32 121.615 18.696C120.815 20.04 120.415 21.576 120.415 23.304C120.415 25.288 120.815 26.936 121.615 28.248C122.415 29.56 123.551 30.216 125.023 30.216Z" fill="#151515"/>
</svg>
